<svg width="22" height="22" viewBox="0 0 22 22" fill="none" xmlns="http://www.w3.org/2000/svg">
<path d="M13.775 17.6125C14.5583 17.3542 15.2917 16.9833 15.975 16.5C15.2917 16.0167 14.5583 15.6458 13.775 15.3875C12.9917 15.1292 12.175 15 11.325 15C10.475 15 9.65833 15.1292 8.875 15.3875C8.09167 15.6458 7.35833 16.0167 6.675 16.5C7.35833 16.9833 8.09167 17.3542 8.875 17.6125C9.65833 17.8708 10.475 18 11.325 18C12.175 18 12.9917 17.8708 13.775 17.6125ZM13.975 9.8L12.55 8.375C12.6333 8.24167 12.7 8.1 12.75 7.95C12.8 7.8 12.825 7.65 12.825 7.5C12.825 7.08333 12.6792 6.72917 12.3875 6.4375C12.0958 6.14583 11.7417 6 11.325 6C11.175 6 11.025 6.025 10.875 6.075C10.725 6.125 10.5833 6.19167 10.45 6.275L9.025 4.85C9.34167 4.56667 9.69583 4.35417 10.0875 4.2125C10.4792 4.07083 10.8917 4 11.325 4C12.2917 4 13.1167 4.34167 13.8 5.025C14.4833 5.70833 14.825 6.53333 14.825 7.5C14.825 7.93333 14.7542 8.34583 14.6125 8.7375C14.4708 9.12917 14.2583 9.48333 13.975 9.8ZM19.675 15.5L18.225 14.05C18.5917 13.4333 18.8667 12.7833 19.05 12.1C19.2333 11.4167 19.325 10.7167 19.325 10C19.325 7.76667 18.55 5.875 17 4.325C15.45 2.775 13.5583 2 11.325 2C10.6083 2 9.90833 2.09167 9.225 2.275C8.54167 2.45833 7.89167 2.73333 7.275 3.1L5.825 1.65C6.64167 1.11667 7.51667 0.708333 8.45 0.425C9.38333 0.141667 10.3417 0 11.325 0C12.7083 0 14.0083 0.2625 15.225 0.7875C16.4417 1.3125 17.5 2.025 18.4 2.925C19.3 3.825 20.0125 4.88333 20.5375 6.1C21.0625 7.31667 21.325 8.61667 21.325 10C21.325 10.9833 21.1833 11.9417 20.9 12.875C20.6167 13.8083 20.2083 14.6833 19.675 15.5ZM11.325 20C9.94167 20 8.64167 19.7375 7.425 19.2125C6.20833 18.6875 5.15 17.975 4.25 17.075C3.35 16.175 2.6375 15.1167 2.1125 13.9C1.5875 12.6833 1.325 11.3833 1.325 10C1.325 9.01667 1.4625 8.05833 1.7375 7.125C2.0125 6.19167 2.41667 5.30833 2.95 4.475L0 1.5L1.425 0.075L21.225 19.875L19.8 21.3L4.425 5.95C4.05833 6.56667 3.78333 7.21667 3.6 7.9C3.41667 8.58333 3.325 9.28333 3.325 10C3.325 10.95 3.48333 11.8583 3.8 12.725C4.11667 13.5917 4.575 14.3833 5.175 15.1C6.075 14.4167 7.04583 13.8958 8.0875 13.5375C9.12917 13.1792 10.2083 13 11.325 13C11.9583 13 12.5917 13.0667 13.225 13.2C13.8583 13.3333 14.475 13.5167 15.075 13.75L18.4 17.075C17.45 18.025 16.3667 18.75 15.15 19.25C13.9333 19.75 12.6583 20 11.325 20Z" fill="#E3E3E3"/>
</svg>
